/* XPM */
static char * arrow_xpm[] = {
"30 30 6 1",
" 	c None",
".	c #FF0000",
"+	c #FF0101",
"@	c #FF0909",
"#	c #FF0404",
"$	c #FF0303",
"                              ",
"                              ",
"                              ",
"              ..              ",
"              ..              ",
"             ....             ",
"             ....             ",
"            ......            ",
"            ......            ",
"           +.......           ",
"           ........           ",
"          +.........          ",
"          ..........          ",
"         +...........         ",
"         ............         ",
"        ..............        ",
"        ..............        ",
"       ................       ",
"       ................       ",
"      ..................      ",
"      ..................      ",
"     ....................     ",
"    @.........  .........     ",
"    ........      ........    ",
"   #......          ......    ",
"   .....              .....   ",
"  $..                    ..   ",
"  .                        .  ",
"                              ",
"                              "};
