/* XPM */
static char * brown_stone_xpm[] = {
"64 64 26 1",
" 	c #7D7D7D",
".	c #463511",
"+	c #533915",
"@	c #5C3E1A",
"#	c #754B23",
"$	c #3E2C11",
"%	c #535353",
"&	c #646464",
"*	c #717171",
"=	c #282828",
"-	c #464646",
";	c #4B4B4B",
">	c #5C5C5C",
",	c #6C461F",
"'	c #35280C",
")	c #8D8D8D",
"!	c #A9A9A9",
"~	c #999999",
"{	c #3E3E3E",
"]	c #353535",
"^	c #313131",
"/	c #2C2C2C",
"(	c #814F28",
"_	c #1A1A1A",
":	c #232323",
"<	c #151515",
"   .+@@#@@@@@@@@@@@@@@+$.@@@@++.%&  ****=======-&*%&%%;;;;%>>&* ",
" **%.+@#@@@@@@@+@@@@@@+$.@@@+..%&  * *  -=====-&*%&%;;%%>&&&&&&*",
"***&%.+,@@@@@@@@++@@@@+$.@++.-%&&-@@@@-&&-===-&*%&%;%>&&&&&&&&&&",
"%* *&%.,@@@@@@@@++@@@@.$.+..%& -@@..$.$.&&---&*%&&&&&&>%%;;;;;;;",
";%** &.,@@@@@@@@@@@@@+.$..%&  -@....$.$.- &&&*%&>>>>>>>>>>>>>>>>",
";;%***.+@@@@@+@@@@@@+$$.%&  &@@.....$.$$'&)!*%&%;;;;;;;;;;;;;;;;",
";;;%* %.+@@@@@@@@@@+$$-%&  -@.......$$.''&! %&%;;;;;-;;;;;;;;;;;",
";;;;%* %.+@@@@@@@++$.%&& &@@........$$.''&~ &%;;;;;;;;;;;;;;;;;;",
";;;;-% &%.+@@@@++$$%&&  -@+......$..$'.''&~&%;;;;-;;;;;;;;;-;;;;",
";;;;--  &%.++++$$%&   &@@+.......$..$'$''&)&%;;;-;;;;;;;;;;;;;;;",
";;;;-- * &%$$$$-%&  &-@++............'$'{&)&>;-;;;-;;;;;;;;;;;;;",
";;;;--**  &%%%%%&  &@@+...+......'...''';* &>;;;-;;;;;;--;;;;;;-",
";;;;-]**&%%%&*~~)*&@++.++........'...'''%*)&%;;;;;;;;;;--;----;;",
";;;-]& &%%%%-&~))&@.++.++........'...'''&* &%;;;;;;;;;;;;;----;;",
";;-]& *%%%%%--*) @+.@............'...''{&  &%;;;;;;;;;;;;;----;;",
";-]&  &%%%%%---&%@.@+...........$'...'';*  &%;;;;;;;;;;;;;----;-",
"-]&  *&%%%%%{;%-&@.@..+.........$'..$''%   %;;;;;;;;;;;;;;;;;;-]",
"]&&--&*%%%%;{%%&&@.+............''..$''&,@&%;;;;;;;;-;;;;;;;;-]{",
"&&-++-&&%%%{{%%%*@++............'$.$'$>,@@%&{;;;;;;;;;;;;;;-{]{{",
"&-+@.+- -%{{{%%%&&++...........$'$''$&,@@@.&&{-;;;;;;;;;-{]^^]{&",
"-+@...$&*-{%{%%%- -+..........$'''';& .....**&{{{-----{{]^]{]%&&",
"+@....$- &-%{%%%-*&$..........'''';&   &&&&))&&{]^^^^^^^]{{]%& -",
"@.....$$&*-%{%%%]& -.........'''{>&%%%%%%% )~~*&%]{{{{{{{{]%& -+",
"...+..$.& &-{%%;]& &$.......''{%&&%-{]{{{{% ~~) &%]{{{{{]]%& -+@",
"......$.-  &{%;-]&  -'$...$''%& &%-{{]]{{{{% ))* &%]]]]]]%& &+@.",
"......$.$& *]---]** &'''''''{& &%-{{{]{]{{]{* *%% &%]]]]%& &-@..",
".++...'.$%* &]]]*    -''''{;> %%-{--{]{]{{]-&*&--% &%%%%& &-+...",
".++...'.$- )*&&* %,,%&--;>>  %%-{{--{]{{]{^%&*%---%   )) *-+....",
"...+..'.$- *)**&,,@@@@&&&* *%%-{{{{{{^{{]]/%&&-----& )) *&+.....",
".....$'.$- ****,@@@@@@+  **%%-{{{-{{{^{{]]-&*%%----%&**&>%+..+++",
".....$$.$%*)***&@@@@@@. * %%%{{{{{{{{^{{]^%*  &&&&&&& *>%>+..+++",
".....'$$$%  &%&  @@@+..  %%-%{{{{{{{{^{{]/&%#########.@#>&+..+++",
"....$'.$-& &%>%&  ++..& %%--%-{{{{{{{/{{^%*,,,@@@@@@@.@@@ +.....",
"....$'$-&&&%>%%%&  &%% &%-{-%-{{{{{{]/{]/%&,@,@@@@@@@.@@+&+..+..",
"....'$-&& %>%%%%%& ) ) %-{{-%-{{{{{{]/{]/&%(@,@@+@@@@.@@+&+.....",
"...$'-&&*&%>%%%%%%& )))%{{{-%;{{{{{{^/{/&*-(@,@@@@@@@.@@+&$.....",
"...'-&&  %>%%%%%%%%&)~~%{{{-%;{{{{{{^/]-**,(@,@@@@@@@.@@+&-$....",
"..$-&&* &%>%%%%%%%%%&~~&{{{-%;-{{{{{//^% &,(@,@@@@@@@+@@+&&-$...",
".$-&&* &%>%%>%%%%%-%%&)*]{{-%;-{{{{{///& %,(@@@@@@@@++@@+& &-$..",
"$-&&  *&%%%%%%%%%%%-%%))%]]-%-;{{{{{//-**,@(@,@@@@@@+@@@.&  &-$$",
"-&&)) &%%%%%>%%%%%%{%%&**/]]%{;{{{{{//% &,@(,@@@@@@@+@@@.&   &--",
"&&~~)&%%%%%%>%%%%%%{-%%&&-/^/{;{{{{{//% %,@(#@@@@@@+@@@@.&==]%&&",
"& ~~*%%%%>>%%%%>%%%-{%%%&%-//]--{{{]/-&*,@@#(@@@@@@+@@@@.&====]%",
"=-))&%%%>>>%%%%%%%%-{%%%%-%&%^^-{{{]/%* ,@@,(@@@@@+@@@@@.&====_=",
"=_- %%%%>>>%%%%%%-%-{-%%%-&&%/^^]{{]/&  +@@@#@@@@@@@@+@@.&====_=",
"=_-*%%%%>>%%%%%%%%%-{-%%-]&))%/^^{{^-***&+@@,,@@@@@@@@@@.&====_=",
"_-&&%%%%%%%>%%%%%-%-{-%-]- )) %/^]]/% ** &+@@,@@@@@++@@+.&===_==",
"-&&&-%%>>%%%%%%%%-%-^--]-% -.- %////* &]]&&++@,@@@@++@+.-&===_==",
"&***&-%>>%%%%%%%%-%-^{]-%&-+.$- &%%& &]==]&*&+@@@@@@@+.-&&______",
"  ** &--%%%%%%%%%-%{^]-%&-+..$.$-   &]====]&*&++@@@@+.-&*  -----",
" * )))&--%%%%%%%--%{^-%&-+...$.$.-  -]=====]&**%+++..-&%%%%%%&  ",
" %,,%))&-]%%%%%%---^-%&-+....$.$.$ &]:===::=]& *%+.--&&%%%%%%-& ",
",,@@,,% &-]-%%%---]-%&-+.....$.$.$ ]==:==::==]& *%--& %%%;%%%-& ",
"@@@@@@,,%&-]-%--]]-&--+....$.$.$$-&]===_:=====]& *&&)&;;%%%%;-& ",
"@+@@@@@@,.&-]--]-%&-+@+......$$$-&]=====__=:===]& *))%;;%%%%;-&,",
"@@@@@@@+@.@@-]]-%&-+@+.....$.$$$%]]=====:__:====]& )&%%%%%%;--&,",
"@@++@@@+@.@@+--%&-++@+.....$.$$-&]==::===:__:====]& %%%%%%%--%,@",
"@@++@@@+@.+..%%&-+.+@......$.$-&-]==:::==:___:====]& %%%%%-;-&,@",
"@@@@@@+.+$..%&&-+..+@.+....$$$%&]]==::=:==____:====]&&%%%;--%,@@",
"@@@@@@+..$.%   -...+@......$$-&]=]========:__:_:====]&;;;-;-%,@@",
"@@@@@@+.$$%    %...+@......$-&-]=]========:___:_:====_&;-%%-,@@@",
"@@@@@@.$$% %{% &-..+@......$%&]==]====::===:_<::_:===_%&%%;&,@@@",
"@@@@@+.$% %{{{% %..+@.....$-&]===]====::===:_<_=__:==_% ;;&,@@@@",
"@@@@+$$%  {{{{{%&..+.....$-%&====]==:======:_<_=:__:=_%  &&,@@@@"};
