/* XPM */
static char * wall_xpm[] = {
"32 32 897 2",
"  	c #534236",
". 	c #766352",
"+ 	c #806F5D",
"@ 	c #887562",
"# 	c #675547",
"$ 	c #6A594B",
"% 	c #4D4233",
"& 	c #3B331F",
"* 	c #58533F",
"= 	c #786A5F",
"- 	c #7F7165",
"; 	c #796C61",
"> 	c #7C6F64",
", 	c #685D57",
"' 	c #665C56",
") 	c #3C322D",
"! 	c #57473B",
"~ 	c #6D5C4E",
"{ 	c #67574A",
"] 	c #675649",
"^ 	c #56483B",
"/ 	c #86735F",
"( 	c #917D69",
"_ 	c #8A7765",
": 	c #746152",
"< 	c #483A30",
"[ 	c #67574D",
"} 	c #6D5D53",
"| 	c #68584E",
"1 	c #63544B",
"2 	c #41342C",
"3 	c #7C6959",
"4 	c #AB9581",
"5 	c #9F8C7A",
"6 	c #9B8979",
"7 	c #988474",
"8 	c #8E7B6C",
"9 	c #6E6B3E",
"0 	c #837865",
"a 	c #9D8C7E",
"b 	c #9F8E81",
"c 	c #9A897D",
"d 	c #8F8075",
"e 	c #847973",
"f 	c #857972",
"g 	c #574D4A",
"h 	c #A48D78",
"i 	c #AF9983",
"j 	c #9C8978",
"k 	c #9A8777",
"l 	c #938070",
"m 	c #736252",
"n 	c #B19983",
"o 	c #AA9581",
"p 	c #917E6E",
"q 	c #63544A",
"r 	c #85756B",
"s 	c #87766A",
"t 	c #867468",
"u 	c #847165",
"v 	c #5A4C44",
"w 	c #786657",
"x 	c #9E8977",
"y 	c #948071",
"z 	c #928072",
"A 	c #8F7C6E",
"B 	c #8A776A",
"C 	c #5C4E44",
"D 	c #918175",
"E 	c #97877B",
"F 	c #98887C",
"G 	c #7E726B",
"H 	c #7D736D",
"I 	c #7E746D",
"J 	c #716662",
"K 	c #564D4B",
"L 	c #9F8B78",
"M 	c #A99583",
"N 	c #A89381",
"O 	c #998878",
"P 	c #897767",
"Q 	c #7A6959",
"R 	c #A08B79",
"S 	c #928071",
"T 	c #978474",
"U 	c #968372",
"V 	c #635449",
"W 	c #827065",
"X 	c #847368",
"Y 	c #88766A",
"Z 	c #857266",
"` 	c #867568",
" .	c #89786B",
"..	c #847264",
"+.	c #867366",
"@.	c #877569",
"#.	c #7C6A5F",
"$.	c #52453D",
"%.	c #73675F",
"&.	c #81756D",
"*.	c #7E736D",
"=.	c #867970",
"-.	c #8C7D74",
";.	c #766964",
">.	c #685D59",
",.	c #5A504D",
"'.	c #917E6D",
").	c #9A8778",
"!.	c #998778",
"~.	c #9A8879",
"{.	c #897769",
"].	c #6E5D50",
"^.	c #937F6F",
"/.	c #8C7A6B",
"(.	c #57493F",
"_.	c #79675C",
":.	c #79675F",
"<.	c #78675F",
"[.	c #6F5D54",
"}.	c #4A3E38",
"|.	c #5A4B42",
"1.	c #7B695E",
"2.	c #867467",
"3.	c #857265",
"4.	c #816F63",
"5.	c #756459",
"6.	c #6D5C54",
"7.	c #51463D",
"8.	c #676C37",
"9.	c #71655F",
"0.	c #7E726A",
"a.	c #897A70",
"b.	c #82736B",
"c.	c #706460",
"d.	c #665B57",
"e.	c #564C4A",
"f.	c #817060",
"g.	c #9B897A",
"h.	c #998777",
"i.	c #917F70",
"j.	c #897666",
"k.	c #655447",
"l.	c #7E6C5E",
"m.	c #827062",
"n.	c #887566",
"o.	c #7A6B5B",
"p.	c #565334",
"q.	c #605644",
"r.	c #715F56",
"s.	c #6B5A52",
"t.	c #66564E",
"u.	c #51443E",
"v.	c #3F322A",
"w.	c #5B4E46",
"x.	c #5B4F48",
"y.	c #564942",
"z.	c #51443C",
"A.	c #4E3E35",
"B.	c #4F4238",
"C.	c #3D322B",
"D.	c #797349",
"E.	c #6A5E49",
"F.	c #65564B",
"G.	c #69594F",
"H.	c #483E3A",
"I.	c #4D433E",
"J.	c #403735",
"K.	c #483B36",
"L.	c #8E7A6A",
"M.	c #8C7A6C",
"N.	c #907D6D",
"O.	c #8B796A",
"P.	c #8A7768",
"Q.	c #4A3C33",
"R.	c #5B4C42",
"S.	c #69594C",
"T.	c #6C5C4D",
"U.	c #6C5D4E",
"V.	c #5A503E",
"W.	c #716E4A",
"X.	c #5A523B",
"Y.	c #5E5047",
"Z.	c #3E3430",
"`.	c #3E3128",
" +	c #7C6F66",
".+	c #91837A",
"++	c #92847B",
"@+	c #877A74",
"#+	c #76665E",
"$+	c #68584D",
"%+	c #AC9580",
"&+	c #A5907D",
"*+	c #B19A84",
"=+	c #B19A85",
"-+	c #A08C7C",
";+	c #958272",
">+	c #61544C",
",+	c #7C6D66",
"'+	c #584E4A",
")+	c #6F6349",
"!+	c #837061",
"~+	c #837162",
"{+	c #8A7767",
"]+	c #79675A",
"^+	c #68574A",
"/+	c #A5907E",
"(+	c #A28F81",
"_+	c #A18F83",
":+	c #9C8A7D",
"<+	c #8B7D75",
"[+	c #897C74",
"}+	c #8D7F77",
"|+	c #8F8179",
"1+	c #88796F",
"2+	c #52463F",
"3+	c #6A5E58",
"4+	c #837771",
"5+	c #887C75",
"6+	c #8D7F76",
"7+	c #897B73",
"8+	c #594C43",
"9+	c #9E8A78",
"0+	c #A18D7B",
"a+	c #A89280",
"b+	c #948173",
"c+	c #8F7E6F",
"d+	c #877466",
"e+	c #4A3D36",
"f+	c #594C45",
"g+	c #6C5F49",
"h+	c #53502F",
"i+	c #625744",
"j+	c #6D5C4D",
"k+	c #54463C",
"l+	c #52443A",
"m+	c #726053",
"n+	c #9D8B7D",
"o+	c #9D8B7F",
"p+	c #8A7D75",
"q+	c #867A73",
"r+	c #877B73",
"s+	c #887B73",
"t+	c #80746D",
"u+	c #564B47",
"v+	c #70655D",
"w+	c #7A6E69",
"x+	c #7C726D",
"y+	c #8B7E75",
"z+	c #867971",
"A+	c #65584F",
"B+	c #998675",
"C+	c #988576",
"D+	c #9C8A79",
"E+	c #998677",
"F+	c #9B8879",
"G+	c #948171",
"H+	c #857163",
"I+	c #726253",
"J+	c #A6907D",
"K+	c #9E8C7B",
"L+	c #A38F7D",
"M+	c #A99584",
"N+	c #A38F7E",
"O+	c #9B8878",
"P+	c #8E7C6E",
"Q+	c #6B5E55",
"R+	c #95857B",
"S+	c #807672",
"T+	c #867973",
"U+	c #857870",
"V+	c #867871",
"W+	c #776C68",
"X+	c #746763",
"Y+	c #564B48",
"Z+	c #6C6059",
"`+	c #7D716B",
" @	c #756965",
".@	c #574C46",
"+@	c #837165",
"@@	c #8E7C6D",
"#@	c #8F7D6E",
"$@	c #988372",
"%@	c #968272",
"&@	c #857264",
"*@	c #746356",
"=@	c #6C5D51",
"-@	c #9E8C7C",
";@	c #A18D7D",
">@	c #A5907F",
",@	c #8A796B",
"'@	c #847265",
")@	c #685A52",
"!@	c #837772",
"~@	c #817773",
"{@	c #8A7D76",
"]@	c #837770",
"^@	c #746864",
"/@	c #6E625E",
"(@	c #6E615C",
"_@	c #4E433F",
":@	c #655A54",
"<@	c #897B72",
"[@	c #83766E",
"}@	c #80726B",
"|@	c #6D625F",
"1@	c #3F3531",
"2@	c #584A40",
"3@	c #67574B",
"4@	c #584A41",
"5@	c #5C4E46",
"6@	c #594A3F",
"7@	c #5A4C42",
"8@	c #726255",
"9@	c #9C897A",
"0@	c #968475",
"a@	c #958477",
"b@	c #978576",
"c@	c #8E7D6F",
"d@	c #827164",
"e@	c #544741",
"f@	c #897B71",
"g@	c #877A73",
"h@	c #867972",
"i@	c #84766F",
"j@	c #6D615B",
"k@	c #695C55",
"l@	c #453B35",
"m@	c #60534C",
"n@	c #83746B",
"o@	c #7E7068",
"p@	c #6B5F5B",
"q@	c #534640",
"r@	c #927D6D",
"s@	c #9C8878",
"t@	c #9D887A",
"u@	c #9A8678",
"v@	c #8D7D72",
"w@	c #89796E",
"x@	c #89776C",
"y@	c #5F4F46",
"z@	c #887669",
"A@	c #837265",
"B@	c #948172",
"C@	c #958374",
"D@	c #847468",
"E@	c #79675B",
"F@	c #53443B",
"G@	c #7C6D63",
"H@	c #8C7D75",
"I@	c #86786F",
"J@	c #7B6E68",
"K@	c #6C5E59",
"L@	c #5D5F41",
"M@	c #525923",
"N@	c #52493B",
"O@	c #7B6C64",
"P@	c #75665F",
"Q@	c #675A54",
"R@	c #665954",
"S@	c #5C4F47",
"T@	c #847367",
"U@	c #8B7A6F",
"V@	c #8B7A6E",
"W@	c #83746A",
"X@	c #87776D",
"Y@	c #88786E",
"Z@	c #827167",
"`@	c #6E6055",
" #	c #76675C",
".#	c #66584E",
"+#	c #504139",
"@#	c #716257",
"##	c #564841",
"$#	c #423832",
"%#	c #695B51",
"&#	c #736457",
"*#	c #716255",
"=#	c #6C5C50",
"-#	c #716256",
";#	c #71684D",
">#	c #4D4C2C",
",#	c #454325",
"'#	c #4A4B23",
")#	c #544E41",
"!#	c #584E4C",
"~#	c #564C48",
"{#	c #534743",
"]#	c #4E4038",
"^#	c #7F6D61",
"/#	c #816F65",
"(#	c #7E6C62",
"_#	c #7D6C63",
":#	c #7D6D63",
"<#	c #7F6D64",
"[#	c #7F6C61",
"}#	c #66584F",
"|#	c #9E8C7F",
"1#	c #9B8B7F",
"2#	c #928379",
"3#	c #605248",
"4#	c #978373",
"5#	c #8E7C6F",
"6#	c #847167",
"7#	c #7E6D64",
"8#	c #5F5047",
"9#	c #B59E88",
"0#	c #B39B86",
"a#	c #A69281",
"b#	c #9D8B7B",
"c#	c #9E8B7B",
"d#	c #9F8C7C",
"e#	c #605247",
"f#	c #635142",
"g#	c #9F8872",
"h#	c #9C8672",
"i#	c #816E5E",
"j#	c #837161",
"k#	c #53443A",
"l#	c #736156",
"m#	c #7C6B60",
"n#	c #77665C",
"o#	c #7A685E",
"p#	c #7D6C62",
"q#	c #806D62",
"r#	c #78655A",
"s#	c #948479",
"t#	c #96877C",
"u#	c #877A72",
"v#	c #847871",
"w#	c #615751",
"x#	c #88756A",
"y#	c #7E6E66",
"z#	c #74645C",
"A#	c #726155",
"B#	c #A9937E",
"C#	c #A18E7D",
"D#	c #978678",
"E#	c #5C4F46",
"F#	c #89725F",
"G#	c #9C8977",
"H#	c #948272",
"I#	c #958373",
"J#	c #948170",
"K#	c #554A3E",
"L#	c #56493E",
"M#	c #61524B",
"N#	c #5F5049",
"O#	c #60514B",
"P#	c #5A4D46",
"Q#	c #54463E",
"R#	c #574B44",
"S#	c #908176",
"T#	c #857973",
"U#	c #7C716B",
"V#	c #6F635F",
"W#	c #5F524B",
"X#	c #837065",
"Y#	c #7A675E",
"Z#	c #72615A",
"`#	c #584A42",
" $	c #907E6F",
".$	c #978475",
"+$	c #988677",
"@$	c #998779",
"#$	c #978677",
"$$	c #938174",
"%$	c #857367",
"&$	c #55473F",
"*$	c #776557",
"=$	c #917F6F",
"-$	c #968271",
";$	c #594A40",
">$	c #938071",
",$	c #8A7A6E",
"'$	c #796D64",
")$	c #6D5D52",
"!$	c #584A43",
"~$	c #82746C",
"{$	c #786B65",
"]$	c #675D5A",
"^$	c #574A44",
"/$	c #7A675C",
"($	c #705E55",
"_$	c #675A4D",
":$	c #5C5A34",
"<$	c #9E8A77",
"[$	c #968476",
"}$	c #978577",
"|$	c #928173",
"1$	c #8C7B70",
"2$	c #77675E",
"3$	c #5C4E45",
"4$	c #6B5A4D",
"5$	c #8E7B6B",
"6$	c #594A42",
"7$	c #9E8D80",
"8$	c #968579",
"9$	c #82776E",
"0$	c #847870",
"a$	c #766A64",
"b$	c #71615A",
"c$	c #463B36",
"d$	c #473D3A",
"e$	c #443B39",
"f$	c #544B47",
"g$	c #4B423F",
"h$	c #372B26",
"i$	c #493C36",
"j$	c #493D38",
"k$	c #5C543C",
"l$	c #6B742E",
"m$	c #505822",
"n$	c #857365",
"o$	c #78685C",
"p$	c #807064",
"q$	c #806F65",
"r$	c #73645C",
"s$	c #6B5E56",
"t$	c #4A3E37",
"u$	c #615245",
"v$	c #867363",
"w$	c #8F7B6B",
"x$	c #8F7C6B",
"y$	c #877465",
"z$	c #66574C",
"A$	c #978679",
"B$	c #8E7F74",
"C$	c #7F736D",
"D$	c #7B6E67",
"E$	c #7B6F67",
"F$	c #70635E",
"G$	c #6E625D",
"H$	c #6E5F51",
"I$	c #B29880",
"J$	c #B39B84",
"K$	c #BAA289",
"L$	c #B8A088",
"M$	c #9F8A77",
"N$	c #837958",
"O$	c #554839",
"P$	c #756353",
"Q$	c #7A6857",
"R$	c #857160",
"S$	c #746253",
"T$	c #5C4E43",
"U$	c #5F5148",
"V$	c #75655C",
"W$	c #72635B",
"X$	c #695B52",
"Y$	c #443630",
"Z$	c #695C43",
"`$	c #7D6A5A",
" %	c #826F61",
".%	c #8B7768",
"+%	c #736255",
"@%	c #584E3D",
"#%	c #7F736C",
"$%	c #7F756D",
"%%	c #726660",
"&%	c #6A5D59",
"*%	c #6A5C55",
"=%	c #816F5F",
"-%	c #AF9780",
";%	c #AE9883",
">%	c #A28E7C",
",%	c #9B8877",
"'%	c #8B7868",
")%	c #796757",
"!%	c #9C8776",
"~%	c #9A8675",
"{%	c #917E6F",
"]%	c #8C7A6A",
"^%	c #7B6A5E",
"/%	c #857469",
"(%	c #8B7A70",
"_%	c #807169",
":%	c #73645E",
"<%	c #504440",
"[%	c #555C22",
"}%	c #5A513D",
"|%	c #665449",
"1%	c #6B584D",
"2%	c #5D4E45",
"3%	c #4D4A29",
"4%	c #625E43",
"5%	c #6E615A",
"6%	c #5E524D",
"7%	c #5D524E",
"8%	c #645753",
"9%	c #5C504B",
"0%	c #64554A",
"a%	c #968473",
"b%	c #998576",
"c%	c #9A8878",
"d%	c #988473",
"e%	c #7D6B5E",
"f%	c #7E6C5C",
"g%	c #958271",
"h%	c #968170",
"i%	c #77675B",
"j%	c #7D6A5E",
"k%	c #847269",
"l%	c #75655E",
"m%	c #6D5E58",
"n%	c #50433F",
"o%	c #605349",
"p%	c #837163",
"q%	c #927F70",
"r%	c #87776B",
"s%	c #7D7065",
"t%	c #766A60",
"u%	c #5A4E48",
"v%	c #87725F",
"w%	c #97826E",
"x%	c #927E6C",
"y%	c #806D5C",
"z%	c #837060",
"A%	c #56483D",
"B%	c #988472",
"C%	c #8D7A6B",
"D%	c #927F6F",
"E%	c #766559",
"F%	c #67584C",
"G%	c #877566",
"H%	c #8D796B",
"I%	c #8A7869",
"J%	c #7D6C5F",
"K%	c #6D5B52",
"L%	c #76655D",
"M%	c #726058",
"N%	c #705D55",
"O%	c #51423C",
"P%	c #8B7E76",
"Q%	c #82756E",
"R%	c #59504D",
"S%	c #A28B76",
"T%	c #A18C7A",
"U%	c #9E8A7A",
"V%	c #978473",
"W%	c #574A40",
"X%	c #877567",
"Y%	c #76665A",
"Z%	c #6B5B51",
"`%	c #7D6B5F",
" &	c #7F6C60",
".&	c #7F6C5F",
"+&	c #6A5A4F",
"@&	c #54453F",
"#&	c #6A5851",
"$&	c #6F5E57",
"%&	c #685B4E",
"&&	c #5A5A2F",
"*&	c #71655D",
"=&	c #887B72",
"-&	c #7D726C",
";&	c #80746F",
">&	c #7E736C",
",&	c #7D7069",
"'&	c #5A514D",
")&	c #907D6E",
"!&	c #907D6F",
"~&	c #857366",
"{&	c #52453C",
"]&	c #605249",
"^&	c #63564D",
"/&	c #53493E",
"(&	c #6A5949",
"_&	c #816D5A",
":&	c #6F5D4F",
"<&	c #736150",
"[&	c #7E6A57",
"}&	c #5E4E41",
"|&	c #6A5B4D",
"1&	c #746557",
"2&	c #736254",
"3&	c #766657",
"4&	c #67584D",
"5&	c #6C5E54",
"6&	c #695B50",
"7&	c #696347",
"8&	c #48432B",
"9&	c #5C4F48",
"0&	c #82746B",
"a&	c #7C6F68",
"b&	c #716561",
"c&	c #756A65",
"d&	c #766B66",
"e&	c #5A504A",
"f&	c #796C55",
"g&	c #857466",
"h&	c #8F7C6C",
"i&	c #897668",
"j&	c #816E60",
"k&	c #5F5147",
"l&	c #988577",
"m&	c #8A7A6F",
"n&	c #5D524D",
"o&	c #B49B83",
"p&	c #A8927C",
"q&	c #917D6E",
"r&	c #B69F87",
"s&	c #AA937D",
"t&	c #7E6D60",
"u&	c #A79385",
"v&	c #9D8B7E",
"w&	c #9A8A7E",
"x&	c #9C8A7C",
"y&	c #98887D",
"z&	c #82776F",
"A&	c #887A72",
"B&	c #5B504B",
"C&	c #4A3E39",
"D&	c #60534F",
"E&	c #5F534F",
"F&	c #635753",
"G&	c #615753",
"H&	c #655B57",
"I&	c #615752",
"J&	c #58533D",
"K&	c #5F6929",
"L&	c #655947",
"M&	c #715F53",
"N&	c #68574C",
"O&	c #5D4F47",
"P&	c #64544A",
"Q&	c #78675E",
"R&	c #756862",
"S&	c #534844",
"T&	c #938172",
"U&	c #938171",
"V&	c #8E7C6C",
"W&	c #7C6C5F",
"X&	c #9D8D80",
"Y&	c #8A7D74",
"Z&	c #98897E",
"`&	c #8E7F76",
" *	c #7E746F",
".*	c #7D716A",
"+*	c #524946",
"@*	c #695748",
"#*	c #8A7562",
"$*	c #8B7565",
"%*	c #7A6558",
"&*	c #5D4C42",
"**	c #705D4D",
"=*	c #9E8771",
"-*	c #9F8871",
";*	c #887361",
">*	c #8E7A66",
",*	c #8C7764",
"'*	c #8A7361",
")*	c #7E6959",
"!*	c #57473F",
"~*	c #75635B",
"{*	c #79675E",
"]*	c #544641",
"^*	c #8D7969",
"/*	c #937F70",
"(*	c #7B6A5D",
"_*	c #88786C",
":*	c #8C7E74",
"<*	c #897D75",
"[*	c #8A7C74",
"}*	c #80756F",
"|*	c #847872",
"1*	c #766A65",
"2*	c #504542",
"3*	c #7E6857",
"4*	c #988371",
"5*	c #887466",
"6*	c #756359",
"7*	c #6E5D55",
"8*	c #8D7662",
"9*	c #AA927C",
"0*	c #AB947F",
"a*	c #9E8976",
"b*	c #9B8674",
"c*	c #8C7969",
"d*	c #877464",
"e*	c #56473F",
"f*	c #61514A",
"g*	c #5E504A",
"h*	c #403632",
"i*	c #7B6758",
"j*	c #7F6E60",
"k*	c #676246",
"l*	c #8D8076",
"m*	c #82756D",
"n*	c #80736B",
"o*	c #6D615D",
"p*	c #705D4F",
"q*	c #7B685C",
"r*	c #77665B",
"s*	c #77655C",
"t*	c #7B6857",
"u*	c #9E8774",
"v*	c #9A8674",
"w*	c #958171",
"x*	c #8C7868",
"y*	c #917C6C",
"z*	c #5E5147",
"A*	c #7E7066",
"B*	c #847469",
"C*	c #7C6E63",
"D*	c #88786A",
"E*	c #827165",
"F*	c #66594F",
"G*	c #564A3E",
"H*	c #766860",
"I*	c #6A5D55",
"J*	c #85756A",
"K*	c #8F8176",
"L*	c #897A71",
"M*	c #796C67",
"N*	c #7C6F69",
"O*	c #87786F",
"P*	c #746862",
"Q*	c #6C5F59",
"R*	c #4C413D",
"S*	c #68564B",
"T*	c #77655B",
"U*	c #746158",
"V*	c #6B5950",
"W*	c #887465",
"X*	c #897465",
"Y*	c #685B53",
"Z*	c #8F8076",
"`*	c #92837A",
" =	c #887970",
".=	c #7E716B",
"+=	c #70645F",
"@=	c #776A64",
"#=	c #5F5553",
"$=	c #6D6058",
"%=	c #7E716A",
"&=	c #6F645F",
"*=	c #6D615C",
"==	c #6B5E5A",
"-=	c #655750",
";=	c #493B34",
">=	c #4D3F38",
",=	c #716057",
"'=	c #64534C",
")=	c #5E5142",
"!=	c #605B39",
"~=	c #7B695A",
"{=	c #847061",
"]=	c #847162",
"^=	c #78675A",
"/=	c #584B44",
"(=	c #796C65",
"_=	c #71645F",
":=	c #71625C",
"<=	c #60534D",
"[=	c #61524C",
"}=	c #6C5E58",
"|=	c #594D46",
"1=	c #5D4E46",
"2=	c #70625C",
"3=	c #6E605A",
"4=	c #6D605B",
"5=	c #61544F",
"6=	c #605149",
"7=	c #63544E",
"8=	c #463A34",
"9=	c #45362D",
"0=	c #3E332E",
"a=	c #413732",
"b=	c #433933",
"c=	c #4D4A2C",
"d=	c #47471F",
"e=	c #504B31",
"f=	c #473A32",
"g=	c #463A31",
"h=	c #443931",
"i=	c #50433A",
"j=	c #53453B",
"k=	c #453932",
"l=	c #3C322B",
"m=	c #4F4A38",
"n=	c #423936",
"o=	c #493E39",
"p=	c #493F3B",
"q=	c #423833",
"r=	c #483E35",
"s=	c #382E2A",
"t=	c #453C38",
"u=	c #3F342D",
"v=	c #3F322B",
"w=	c #433935",
"x=	c #433835",
"y=	c #453A35",
"z=	c #41352D",
"A=	c #463831",
"B=	c #453934",
"C=	c #3E322D",
"D=	c #3C312B",
"  . + @ # $ % & * = - ; > , ' ) ! ~ { { ] ^ / ( _ : < [ } | 1 2 ",
"3 4 4 5 6 7 8 9 0 a b c d e f g h i j k l m n o k p q r s t u v ",
"w x y 8 z A B C D E F G H I J K L M N O P Q R S T U V W X Y Z 1 ",
"w `  ...+.@.#.$.%.&.*.=.-.;.>.,.'.).!.~.{.].^.S /.^.(._.:.<.[.}.",
"|.1.2.3.4.5.6.7.8.9.0.a.b.c.d.e.f.g.h.i.j.k.l.m.n.o.p.q.r.s.t.u.",
"v.w.x.y.z.A.B.C.D.E.F.G.H.I.J.K.L.M.N.O.P.Q.R.S.T.U.V.W.X.Y.Z.`.",
" +.+++@+#+$+%+&+*+=+-+;+n.>+,+'+)+!+~+{+]+^+/+(+_+:+<+[+}+|+1+2+",
"3+4+5+6+7+8+9+0+a+0+b+c+d+e+f+g+h+i+j+k+l+m+n+o+c p+e q+r+s+t+u+",
"v+w+x+y+z+A+B+C+D+E+F+G+H+I+J+K+L+M+N+O+P+Q+7+R+e S+T+U+V+W+X+Y+",
"Z+s+p+`+ @.@+@@@#@$@%@&@*@=@-@~.F+;@>@,@'@)@q+!@~@5+{@]@^@/@(@_@",
":@<@[@}@|@1@2@3@V 4@5@6@7@8@9@F+0@a@b@c@d@e@f@g@h@7+i@/@j@(@k@l@",
"m@n@o@}@p@q@r@s@t@u@v@w@x@y@z@A@B@b+C@D@E@F@G@G H@I@J@p@K@, L@M@",
"N@O@P@Q@R@S@T@U@V@W@X@Y@Z@z.`@ #.#)@+#3@@#1 ##$#%#&#*#=#-#;#>#,#",
"'#)#!#~#{#]#^#/#(#_#:#<#[#}#|#1#2#4+3#4#5#6#7#8#9#0#a#b#9@c#d#e#",
"f#g#h#i#j#k#l#m#n#o#p#q#r#%#s#t#u#v#w##@x#y#z#A#B#N+-+C#h.D#M.E#",
"F#G#H#I#J#K#L###M#N#O#P#Q#R#S#T#U#V#W#X#W Y#Z#`# $.$+$@$#$$$%$&$",
"*$=$-$^.-$;$@@>$4#,$'$)$l#!$~${$|@]$^$/$m#($_$:$<$i.[$}$|$1$2$3$",
"4$5$'.'.L.6$n+7$8$9$0$a$b$c$d$e$f$g$h$i$j$k$l$m$n$@@o$p$q$r$s$t$",
"u$v$w$x$y$z$A$B$C$D$E$F$G$H$I$J$K$L$o M$N$O$P$Q$R$S$T$U$V$W$X$Y$",
"Z$`$ %.%+%@%#%$%#%%%>.&%*%=%-%;%&+>%C+,%'%)%!%~%{%]%^%/%(%_%:%<%",
"[%}%|%1%2%3%4%5%&%6%7%8%9%0%a%b%h.c%d%B+e%f%g%;+h%{.i%j%k%l%m%n%",
"o%p%c+q%r%s%t%u%v%w%x%y%z%A%B%C%l D%D%5$E%F% $G%H%I%J%K%L%M%N%O%",
"D@E ++<@P%r+Q%R%S%T%U%V%>$W%-$O.p%@@X%Y%Z%4@`%_. &.&+&@&#&$&%&&&",
"*&=&r+-&;&>&,&'&)&I#G+!&~&{&]&^&/&(&_&:&<&[&}&|&1&2&3&4&5&6&7&8&",
"9&0&a&%%b&c&d&e&f&g&h&i&j&k&l&m&n&o&p&q&r&s&t&K+u&v&w&x&y&z&A&B&",
"C&D&E&F&G&H&I&J&K&L&M&N&O&P&Q&R&S&M$T&U&G+V&W&2.X&Y&Z&`& *>&.*+*",
"@*#*$*%*&***=*-*;*>*,*'*)*!*~*{*]*^*>$/*O.P.(*_*:*<*[**.}*|*1*2*",
"3*4*5*6*7*8*9*0*a*b*-$c*d*e*f*g*h*i*(*4...j*k*m&l*y+y+m*A&n*o*_@",
"p*q*r*s*s.t*u*d%v*w*n.x*y*z*A*B*C*D*E*F*G*H*I*J*K*L*M*N*O*P*Q*R*",
"S*o#T*U*V*:&d*C%L.c*W*X*n.Y*Z*`*Z* =.=+=F.@=#=$=%=b&&=*===p@-=;=",
">=,=K%'=)=!=~=y$!+j.{=]=^=/=(=_=c.c.:=<=[=}=|=1=2=3=4=5=6=7=N%8=",
"9=0=a=b=c=d=e=f=g=h=i=j=k=l=m=n=o=p=q=r=s=t=u=v=w=x=y=z=A=B=C=D="};
