/* XPM */
static char * floor_xpm[] = {
"32 32 651 2",
"  	c #6D5238",
". 	c #7E5A3A",
"+ 	c #825D3B",
"@ 	c #85613F",
"# 	c #805C3B",
"$ 	c #7C5837",
"% 	c #815C3A",
"& 	c #845F3C",
"* 	c #805C3A",
"= 	c #7F5B3A",
"- 	c #7E5B39",
"; 	c #7D5938",
"> 	c #785434",
", 	c #765436",
"' 	c #533925",
") 	c #805F41",
"! 	c #6F4E31",
"~ 	c #735133",
"{ 	c #805B39",
"] 	c #835D3B",
"^ 	c #7E5837",
"/ 	c #7C5838",
"( 	c #775335",
"_ 	c #745032",
": 	c #725033",
"< 	c #573C28",
"[ 	c #755236",
"} 	c #8A5E3D",
"| 	c #8C613F",
"1 	c #8C613E",
"2 	c #8D6140",
"3 	c #865C3C",
"4 	c #875C3C",
"5 	c #885E3D",
"6 	c #8B603E",
"7 	c #8E623F",
"8 	c #91643F",
"9 	c #855B3B",
"0 	c #7F5639",
"a 	c #714F38",
"b 	c #523625",
"c 	c #876143",
"d 	c #875C3B",
"e 	c #90633F",
"f 	c #956741",
"g 	c #936640",
"h 	c #956640",
"i 	c #91633E",
"j 	c #8B5E3C",
"k 	c #8D613E",
"l 	c #865B3C",
"m 	c #7F563A",
"n 	c #7E5539",
"o 	c #815739",
"p 	c #7B5337",
"q 	c #6D4B32",
"r 	c #815738",
"s 	c #84593A",
"t 	c #81583A",
"u 	c #8D6240",
"v 	c #83593A",
"w 	c #845B3C",
"x 	c #875D3E",
"y 	c #7F5638",
"z 	c #845A3B",
"A 	c #82583A",
"B 	c #5E3F2C",
"C 	c #8F6440",
"D 	c #8D603E",
"E 	c #8D623F",
"F 	c #895E3C",
"G 	c #855A3A",
"H 	c #855A3B",
"I 	c #7F5538",
"J 	c #805639",
"K 	c #80573A",
"L 	c #7D5338",
"M 	c #775037",
"N 	c #5A3B2A",
"O 	c #735035",
"P 	c #875D3D",
"Q 	c #83593B",
"R 	c #7E5639",
"S 	c #82593A",
"T 	c #845A3A",
"U 	c #805739",
"V 	c #7F573A",
"W 	c #775136",
"X 	c #7C563A",
"Y 	c #553928",
"Z 	c #7D583D",
"` 	c #7C5438",
" .	c #855B3C",
"..	c #865C3B",
"+.	c #7E5538",
"@.	c #795136",
"#.	c #7C5338",
"$.	c #795137",
"%.	c #785037",
"&.	c #734B34",
"*.	c #724B34",
"=.	c #724C35",
"-.	c #4D3324",
";.	c #6C4A31",
">.	c #815839",
",.	c #7F5437",
"'.	c #835839",
").	c #825839",
"!.	c #83583A",
"~.	c #865B3A",
"{.	c #885D3A",
"].	c #704E36",
"^.	c #583A28",
"/.	c #76523B",
"(.	c #805638",
"_.	c #7C5236",
":.	c #7D5438",
"<.	c #785035",
"[.	c #734B33",
"}.	c #785036",
"|.	c #724C34",
"1.	c #7A5237",
"2.	c #7A5136",
"3.	c #7B5237",
"4.	c #784F35",
"5.	c #774F35",
"6.	c #684733",
"7.	c #503425",
"8.	c #654A34",
"9.	c #6E4B34",
"0.	c #714E35",
"a.	c #765238",
"b.	c #765137",
"c.	c #795438",
"d.	c #7C5538",
"e.	c #7B5538",
"f.	c #734F35",
"g.	c #4E3524",
"h.	c #906943",
"i.	c #936C44",
"j.	c #926A43",
"k.	c #987047",
"l.	c #946D46",
"m.	c #7D5A39",
"n.	c #7F5B3C",
"o.	c #98714A",
"p.	c #976F48",
"q.	c #966F47",
"r.	c #986F47",
"s.	c #976E46",
"t.	c #946B44",
"u.	c #926A44",
"v.	c #916B44",
"w.	c #8C6642",
"x.	c #8B6440",
"y.	c #7B5536",
"z.	c #7A5738",
"A.	c #61462F",
"B.	c #614431",
"C.	c #664737",
"D.	c #744C35",
"E.	c #764E36",
"F.	c #754E36",
"G.	c #785038",
"H.	c #734E37",
"I.	c #503526",
"J.	c #835B3D",
"K.	c #875E40",
"L.	c #966841",
"M.	c #976942",
"N.	c #996B44",
"O.	c #986940",
"P.	c #9D6D43",
"Q.	c #996B43",
"R.	c #9E6F44",
"S.	c #9B6B42",
"T.	c #9B6B43",
"U.	c #966840",
"V.	c #976841",
"W.	c #956740",
"X.	c #8F623E",
"Y.	c #90643F",
"Z.	c #93663F",
"`.	c #67452C",
" +	c #5F412E",
".+	c #6C4731",
"++	c #6E4833",
"@+	c #795037",
"#+	c #764F37",
"$+	c #734B35",
"%+	c #533628",
"&+	c #A87A4F",
"*+	c #9D6E45",
"=+	c #9D6D44",
"-+	c #9F6E44",
";+	c #9E6F46",
">+	c #9E6E45",
",+	c #996941",
"'+	c #A06F45",
")+	c #9C6C42",
"!+	c #9A6A41",
"~+	c #9C6C43",
"{+	c #946640",
"]+	c #996A42",
"^+	c #926641",
"/+	c #8A603D",
"(+	c #946741",
"_+	c #926540",
":+	c #906440",
"<+	c #5E3F29",
"[+	c #6B4B36",
"}+	c #795238",
"|+	c #7C543A",
"1+	c #724C36",
"2+	c #6A4632",
"3+	c #6B4733",
"4+	c #613F2E",
"5+	c #6A4834",
"6+	c #493023",
"7+	c #8E6440",
"8+	c #8F6340",
"9+	c #8A5F3E",
"0+	c #936641",
"a+	c #996C46",
"b+	c #946641",
"c+	c #885C3B",
"d+	c #855C3C",
"e+	c #916440",
"f+	c #8A5F3D",
"g+	c #895E3D",
"h+	c #62422E",
"i+	c #593C2C",
"j+	c #654738",
"k+	c #6A4531",
"l+	c #694531",
"m+	c #6D4934",
"n+	c #6E4832",
"o+	c #6D4833",
"p+	c #694634",
"q+	c #492F23",
"r+	c #866040",
"s+	c #845C3C",
"t+	c #8C613D",
"u+	c #8F633E",
"v+	c #8A5E3C",
"w+	c #8C603E",
"x+	c #93653F",
"y+	c #91643E",
"z+	c #8C603D",
"A+	c #8C603C",
"B+	c #8F613D",
"C+	c #7B5335",
"D+	c #795439",
"E+	c #5A3D29",
"F+	c #71553B",
"G+	c #7B5635",
"H+	c #7D5837",
"I+	c #88613D",
"J+	c #8C643F",
"K+	c #87603B",
"L+	c #8A633E",
"M+	c #865F3B",
"N+	c #89613D",
"O+	c #88603B",
"P+	c #8B633D",
"Q+	c #8C653F",
"R+	c #855E3B",
"S+	c #8B643E",
"T+	c #805836",
"U+	c #7D5735",
"V+	c #704E32",
"W+	c #72553B",
"X+	c #6E4C31",
"Y+	c #67452D",
"Z+	c #69472E",
"`+	c #775234",
" @	c #7A5436",
".@	c #795435",
"+@	c #775134",
"@@	c #745034",
"#@	c #6A482F",
"$@	c #67452F",
"%@	c #4B3323",
"&@	c #7A5739",
"*@	c #926742",
"=@	c #966941",
"-@	c #976943",
";@	c #956742",
">@	c #956842",
",@	c #956840",
"'@	c #966740",
")@	c #8A6345",
"!@	c #785236",
"~@	c #745137",
"{@	c #775138",
"]@	c #7B5339",
"^@	c #7E5439",
"/@	c #7E5438",
"(@	c #7D5439",
"_@	c #7D553A",
":@	c #7A5239",
"<@	c #795138",
"[@	c #6C4732",
"}@	c #4D3225",
"|@	c #92653F",
"1@	c #8E623E",
"2@	c #906541",
"3@	c #9D7047",
"4@	c #996C44",
"5@	c #9A6C44",
"6@	c #8A5F3C",
"7@	c #916540",
"8@	c #7A5337",
"9@	c #765138",
"0@	c #7F5539",
"a@	c #714A34",
"b@	c #704A35",
"c@	c #6F4934",
"d@	c #6D4832",
"e@	c #4F3426",
"f@	c #885D3C",
"g@	c #8B603F",
"h@	c #946843",
"i@	c #845B3B",
"j@	c #724E34",
"k@	c #6A4832",
"l@	c #6D4834",
"m@	c #774F37",
"n@	c #784F36",
"o@	c #734C36",
"p@	c #704934",
"q@	c #714934",
"r@	c #6D4732",
"s@	c #482E22",
"t@	c #735235",
"u@	c #805738",
"v@	c #7B5336",
"w@	c #81573A",
"x@	c #825838",
"y@	c #8E613D",
"z@	c #895D3C",
"A@	c #8C5F3C",
"B@	c #8D6545",
"C@	c #775033",
"D@	c #664734",
"E@	c #614436",
"F@	c #684430",
"G@	c #694430",
"H@	c #6F4832",
"I@	c #6C4631",
"J@	c #65422F",
"K@	c #64473A",
"L@	c #4A3023",
"M@	c #664C37",
"N@	c #65432C",
"O@	c #714E33",
"P@	c #745035",
"Q@	c #775034",
"R@	c #765134",
"S@	c #795336",
"T@	c #744F34",
"U@	c #68452E",
"V@	c #67452E",
"W@	c #65432E",
"X@	c #5D442F",
"Y@	c #825D3A",
"Z@	c #89623D",
"`@	c #8A623D",
" #	c #8A623E",
".#	c #845D3A",
"+#	c #745033",
"@#	c #84603E",
"##	c #89623E",
"$#	c #87613E",
"%#	c #815B3A",
"&#	c #7E5838",
"*#	c #775132",
"=#	c #775131",
"-#	c #765132",
";#	c #734E30",
">#	c #563B27",
",#	c #5D3F2C",
"'#	c #735648",
")#	c #754E35",
"!#	c #7A5137",
"~#	c #7A5A4A",
"{#	c #654533",
"]#	c #5C422F",
"^#	c #7F5C43",
"/#	c #865C3D",
"(#	c #895F3E",
"_#	c #8E6240",
":#	c #885D3B",
"<#	c #865B3B",
"[#	c #825739",
"}#	c #805538",
"|#	c #715342",
"1#	c #533725",
"2#	c #7B5338",
"3#	c #784F37",
"4#	c #754E37",
"5#	c #6A4C36",
"6#	c #8B603D",
"7#	c #885D3D",
"8#	c #875C3D",
"9#	c #7E563A",
"0#	c #583B28",
"a#	c #684730",
"b#	c #785138",
"c#	c #785137",
"d#	c #7B5238",
"e#	c #734C35",
"f#	c #704A34",
"g#	c #724B35",
"h#	c #704A36",
"i#	c #5D412C",
"j#	c #875D3C",
"k#	c #8A5F3F",
"l#	c #7A5238",
"m#	c #8F623D",
"n#	c #91633F",
"o#	c #5B3B28",
"p#	c #644530",
"q#	c #6C4A36",
"r#	c #704C36",
"s#	c #754D36",
"t#	c #775038",
"u#	c #704B36",
"v#	c #6C4733",
"w#	c #6B4633",
"x#	c #705141",
"y#	c #5E422F",
"z#	c #755339",
"A#	c #895D3B",
"B#	c #774E34",
"C#	c #7B5136",
"D#	c #7D5337",
"E#	c #764E35",
"F#	c #704B35",
"G#	c #73513B",
"H#	c #533626",
"I#	c #654B32",
"J#	c #755233",
"K#	c #714F31",
"L#	c #7A5737",
"M#	c #825E3B",
"N#	c #815D3B",
"O#	c #7F5B38",
"P#	c #7B5836",
"Q#	c #7E5A39",
"R#	c #7C5938",
"S#	c #7B5837",
"T#	c #785535",
"U#	c #795636",
"V#	c #775333",
"W#	c #765233",
"X#	c #745132",
"Y#	c #714F32",
"Z#	c #5C412D",
"`#	c #66452D",
" $	c #69462C",
".$	c #6C4930",
"+$	c #6D4B30",
"@$	c #6B472E",
"#$	c #68462E",
"$$	c #64432B",
"%$	c #604029",
"&$	c #60412A",
"*$	c #5D3E29",
"=$	c #4B3222",
"-$	c #825F3F",
";$	c #946943",
">$	c #986A43",
",$	c #9D6F46",
"'$	c #9E6F45",
")$	c #9F7046",
"!$	c #9B6D44",
"~$	c #986942",
"{$	c #9A6B43",
"]$	c #976A42",
"^$	c #8F633F",
"/$	c #896449",
"($	c #805A3B",
"_$	c #745646",
":$	c #764F36",
"<$	c #764E37",
"[$	c #714B36",
"}$	c #6D4935",
"|$	c #4D3326",
"1$	c #7B5738",
"2$	c #996A43",
"3$	c #916641",
"4$	c #8D6340",
"5$	c #956943",
"6$	c #986B44",
"7$	c #976A43",
"8$	c #966741",
"9$	c #926541",
"0$	c #906340",
"a$	c #835A3C",
"b$	c #5E412F",
"c$	c #714B34",
"d$	c #6E4934",
"e$	c #714B35",
"f$	c #6F4834",
"g$	c #6B4734",
"h$	c #4E3327",
"i$	c #735238",
"j$	c #875E3E",
"k$	c #956944",
"l$	c #8E6441",
"m$	c #835B3C",
"n$	c #7A5439",
"o$	c #5D3F2B",
"p$	c #6A4532",
"q$	c #654231",
"r$	c #614030",
"s$	c #5E3D2E",
"t$	c #5E3E2F",
"u$	c #452E23",
"v$	c #734F32",
"w$	c #896143",
"x$	c #8E6340",
"y$	c #916541",
"z$	c #8F623F",
"A$	c #926440",
"B$	c #986F4E",
"C$	c #855E3F",
"D$	c #6D4C38",
"E$	c #714A35",
"F$	c #6E4935",
"G$	c #6C4834",
"H$	c #6C4734",
"I$	c #6A4633",
"J$	c #694533",
"K$	c #694633",
"L$	c #482F23",
"M$	c #59412F",
"N$	c #64432C",
"O$	c #6A482E",
"P$	c #724F32",
"Q$	c #745135",
"R$	c #704E33",
"S$	c #725034",
"T$	c #65452E",
"U$	c #62422C",
"V$	c #5F3E2A",
"W$	c #5F3F2A",
"X$	c #63422C",
"Y$	c #654830",
"Z$	c #5F3F28",
"`$	c #66452E",
" %	c #6E4C30",
".%	c #755636",
"+%	c #64482E",
"@%	c #5E3F2B",
"#%	c #664931",
"$%	c #735334",
"%%	c #715033",
"&%	c #725234",
"*%	c #715135",
"=%	c #6D4E32",
"-%	c #6D4D32",
";%	c #573926",
">%	c #573A28",
",%	c #452F20",
"'%	c #644532",
")%	c #6A4F41",
"!%	c #6F4A34",
"~%	c #6F4933",
"{%	c #7C5339",
"]%	c #74523F",
"^%	c #644332",
"/%	c #805E3E",
"(%	c #8D6541",
"_%	c #996A44",
":%	c #9B6E46",
"<%	c #8D603D",
"[%	c #5E3F2A",
"}%	c #664733",
"|%	c #714C35",
"1%	c #6B4531",
"2%	c #6D4733",
"3%	c #674230",
"4%	c #603F2E",
"5%	c #795739",
"6%	c #8A5E3E",
"7%	c #563827",
"8%	c #5E402E",
"9%	c #664230",
"0%	c #674331",
"a%	c #704933",
"b%	c #694431",
"c%	c #674330",
"d%	c #6A4432",
"e%	c #785739",
"f%	c #885C3C",
"g%	c #82593B",
"h%	c #80583B",
"i%	c #583B29",
"j%	c #604230",
"k%	c #684431",
"l%	c #6B4632",
"m%	c #603E2D",
"n%	c #5A3B2C",
"o%	c #735033",
"p%	c #90623E",
"q%	c #80573B",
"r%	c #81583B",
"s%	c #533625",
"t%	c #5B3D2C",
"u%	c #684B3C",
"v%	c #694432",
"w%	c #664331",
"x%	c #684531",
"y%	c #654331",
"z%	c #65412F",
"A%	c #654130",
"B%	c #6F5549",
"C%	c #654432",
"D%	c #745338",
"E%	c #7D583C",
"F%	c #90633E",
"G%	c #8B5F3C",
"H%	c #895D3A",
"I%	c #7F5739",
"J%	c #7C5337",
"K%	c #805E47",
"L%	c #3A251C",
"M%	c #412A1F",
"N%	c #432B20",
"O%	c #432C20",
"P%	c #3F291D",
"Q%	c #3F281E",
"R%	c #422B1F",
"S%	c #462D21",
"T%	c #442B20",
"U%	c #40281D",
"V%	c #3D281E",
"W%	c #483120",
"X%	c #60412B",
"Y%	c #63432C",
"Z%	c #5E3F28",
"`%	c #5A3C27",
" &	c #5A3B26",
".&	c #5B3D29",
"+&	c #573826",
"@&	c #553826",
"#&	c #503524",
"$&	c #5D3E2A",
"%&	c #462F22",
"  . + @ # $ % & * = - ; $ > , ' ) ! ~ ; + { % ] + * ^ / ( _ : < ",
"[ } | 1 2 3 4 5 6 7 8 4 9 0 a b c d e f g h i j k l 0 m n o p b ",
"q r s t u } v w x 5 y z 3 z A B C D E u 9 F F 4 G H I J K L M N ",
"O P } 9 Q s R S y r T U V W X Y Z ` t  ...z 0 +.@.#.$.%.&.*.=.-.",
";.U >.t I o ,.r '.).9 !.~.{.].^.` /.(._.:.<.[.}.|.1.2.3.4.5.6.7.",
"8.9.0.a.b.c.d.e.f.g.h.i.j.k.l.m.n.o.p.q.r.s.t.u.j.v.w.x.y.z.; A.",
"B.C.D.E.E.F.G.F.H.I.J.K.i L.M.N.O.P.Q.R.S.T.U.V.W.X.L.M.X.Y.Z.`.",
" +.+++*.@+%.#+E.$+%+&+*+=+-+;+>+,+P.'+S.)+!+~+{+]+W.^+/+(+_+:+<+",
"[+}+|+M 1+2+3+4+5+6+7+u ^+8+9+k M.0+a+b+f k c+A ~.d+e+f+6 g+P h+",
"i+j+k+l+m+n+o+o+p+q+r+s+t+u+i v+w+Y.x+x+y+z+A+B+A+t+~...t C+D+E+",
"F+G+H+I+J+K+L+M+I+N+O+P+P+Q+^ R+S+T+U+V+W+X+Y+Z+`+ @.@+@@@#@$@%@",
"&@*@0+f =@f Q.-@;@>@_+_+,@'@Q.f 8 e+)@!@~@{@]@^@/@(@_@:@<@G.[@}@",
"+ |@(+1@2@3@4@5@M.Q.1@:+e k 1 6@(+7@E 8@9@(@0@L $.%.a@++b@c@d@e@",
"[ 8 v+F d G f@G ).f+g@g+7 g h@e+9 v i@j@k@l@m@%.n@o@o@p@c@q@r@s@",
"t@i@z v (.u@v@1.t w@r x@T y@e A+z@A@B@C@D@E@F@G@H@I@l+l+J@4+K@L@",
"M@N@O@P@Q@R@S@T@U@V@W@X@Y@Z@`@ #.#+#@###$#R+%#H+&#U+^ *#=#-#;#>#",
",#'#|.)#%.<@!#!#E.~#{#]#^#S /#6 (#9+_#f@:#f+l 4 (#4 <#[#}#y |#1#",
"[+2#$.<@3#D.#+4#m@#+1+5#^+6#k 7  .7#8#g+w+y@7#7#4 3  .!.9#r 0 0#",
"a#}.b#c#d#e#b@f#c@g#h#i#i@).j#k#4 l  .}+(@l#$.5 ..f@m#n#m#j k o#",
"p#q#r#a@s#g#t#u#v#w#x#y#z#T A#A#c+f@3 1.B#L :.C#/@0 I D#E#F#G#H#",
"I#J#K#L#M#N#O#P#Q#R#S#T#G+U#; V#W#X#Y#Z#`#`. $.$+$@$#$$$%$&$*$=$",
"-$;$Q.>$,$'$R.)$~+]+!$~${$]$(+^$1@/$($ +_$:$G.m@$.}.@+<$[$f#}$|$",
"1$N.M.2$3$4$5$C ^$6$7$8$(+0+^+9$0$g+a$b$c$g#[$c@c@d$c@e$[$f$g$h$",
"i$Y.6 j$8+7@g@6 9+e+C k$E  .l$j$P m$n$o$f#[$4#u#k+p$w#q$r$s$t$u$",
"v$w$5 | x$| x z P F y$_#1@e z$1@A$B$C$b$D$F#c@d$E$F$G$H$I$J$K$L$",
"M$N$O$P$( Q$V+R$S$T$U$V$W$X$Y$Z$`$ %.%+%@%#%$%%%&%*%=%-%<+;%>%,%",
"'%)%!%~%~%*.@+d#n {%2.E#]%^%/%(%M.2$2$_%>$:%M.8$W.A$v+6@k <% .[%",
"}%|%|%l@o+1%s#f#o+o+a@2%3%4%5%F C ^$8 X.e 6%} e k P } s v _.m 7%",
"8%9%J@0%k+a%o+b%0%0%c%d%0%r$e%<%| 8+D } <#6 f% .} g%K h%#.1.$.i%",
"j%1+E.a@d@o+r@2+k%k%l%3%m%n%o%9+} X.8 e p%k F z q%0 ).4 r%L 1.s%",
"t%u%l%v%k%w%x%y%z%A%0%v%B%C%D%E%~.v+F%x+y+G%H%d s z I%J%}#A K%o$",
"L%M%N%O%P%Q%R%M%Q%L$S%T%U%V%W%X%Y%%$Z%`% &.&;%;%;%+&@&b #&0#$&%&"};
