/* XPM */
static char * slime_stone_xpm[] = {
"64 64 25 1",
" 	c #282828",
".	c #535353",
"+	c #464646",
"@	c #DDDDDD",
"#	c #CDC500",
"$	c #B5AD00",
"%	c #1A1A1A",
"&	c #353535",
"*	c #8D8D8D",
"=	c #A9A9A9",
"-	c #717171",
";	c #D1D1D1",
">	c #999999",
",	c #C1C1C1",
"'	c #B5B5B5",
")	c #7D7D7D",
"!	c #9D9D00",
"~	c #716C00",
"{	c #646464",
"]	c #858500",
"^	c #E5D900",
"/	c #575300",
"(	c #EDEDED",
"_	c #FCF41A",
":	c #3E3E00",
"                                                                ",
"..........+@#####@@@@@@$$$@%&*=@@@@@###-**.%++++++++++..........",
"..........+@;$$$$>=##;,,##*%&*,'*#)#!!!~..&%&-!!!!)))-{+++++++++",
"********%.+@;$$$~>##!,,,]${%&=@=*)#)~]~.).&%&!#^!~*',###{{##****",
";'$''=**%.+@;!!]~>#!==>**!.%&*,***=={]~.-.&%&!^$~{)'@#^^+{##]);;",
"==$$.-)-%.+@,!]~-)>=>!*-*].%&+=#!=**)/.-..&%&!^~{*'^#)!!+{!]~+*>",
"'>~.***-%++@;!~~)=>>>!*>-*.%&+)!]$*==-{-&&&%&]!~{)###)~!+-{++{$)",
"'')*=*-.%&+@;*))>=>;)]>=**.%&+-*=*=***=-&&& &]~{**)#))~~+-)*-)]{",
">==--*++% +@,=>)>#>>*>**=*.%%+.--..&&&&&&&%&&){*)==)*=)+-*>**=){",
"****-.++% +@(=)>)#$-***=**. %++&&&&&&&&&%%&&&)''*!)>))>{->*>**=*",
"----.+&&% +@@*)>>#!-=*=*=*. %&+&  %%%%%  &&&&)')!+*=^)*-*->{-*{{",
"..+++%%%% +=@=>)#$!->**)*-{&%&++++-====@@~&&&-'*){{)!&..{+++++++",
"%%%%%    &.*@;*)*!-**=)*!*.&%&+-=__@@@;;@#~&&.*-{{.+/&&&&&&     ",
"         &.-=;*=***=**>*{{.&% &=_#!**=*=!-/%&&&&&&&&&&&  %%%%%%%",
"&&&&&&&&&&.+*;=*=>->*)*=]..&% +=#])=*^^*!.~&&          &&&&&&&&&",
".+&&&&&&&&.+-,*=>#!-=*=*~.-+% +=^])*#^)*]./&++....%+++++++++++++",
">>>>>>>>> %.+,,]*!]=-***-{..%%+^^))=^^-*~.&&+^$${.+.)>>>>>>>>>>>",
";#$@@#!--&%.+*,~{>{*--=*-*-+%%+^)*)*!~{=*.&&&$$]{ +),###@$==###@",
"#$]$$!~.-&%.+->{{**-*.*-.-.+%%+)*)*^{{{...&%&!].{%+>###)^!)=#!]-",
"$]=$!]~.-&%+.+>>-*{----.-.+ %% =*-*-.&&&&&&%{!]-.%+>##)>!!)>#!]-",
"]=*$!~~..&%+.+{..&&&&&& %%%%%% *-&&&%%%%%%%%{*]*.%+>=)*>!))=#!]>",
"=*=$~..*.&%+.+    %%%%%%%%%%%% &.&%%%%      *=*=.%+*=>=>=)=)=!~-",
"*=)).-*-.&%&..+&%%%%%%%%+++++++**>!!!!!). &{,@=,{%+**=^>*=>==))>",
"*#!)***{+&%&*##$!*'''{&+{!###$;(((####$!]%&)@,@=-%+)>=>*=>^>)=>=",
"*!]=***{+&%&#$$!)))))&.+!#$->==>=>!)!]!]~%&*@==,^%+^=>=>^^)=>>=>",
">]****-.&&%&$!]{{{{{{%.+>(>>!>#=>>)=])!~/%&*^**=!%+!/-{^$]~/--.-",
"{{{{{.+&&&%&$]{{>]!~{%++>(^=>#]>##=>]=]{/%&*$-*=~%+/&&+////++...",
".++&&&%%%% &$]{>>)]~{%++>(#=#!)>#]>=>>){:%&*-*=@/%+  %%%%%%%%&&+",
"%%%%%%   +++({>=]*]~{%&+>($>#~)=>=>)$]){:%&^(=@=.%+&&&&   %%%%%%",
"+{{-*>****+%(>>=]*{){:%+>($=!~)>)>=>$]).:%&$(,,=.%+&&&&&&&&&&&&&",
"{*'$$*===={%(=;*~=*){:%+>(=#!~)>==>=$]*.:%~!@==$.%+~!!!$$]]++++.",
"{'$$]{====+%(=>=)*)*{:%+)>#!~-)=>>)>$]{.:%&!@@$!.%+-!~!!!$$$]>&.",
"{$!]{*=$$-{%(;=>=]*={:%&.>!~))*>=)>)$]-+&%&!@=$~.%+>--!!]]~~~)&.",
"{$!--=-$]-{%(>*>=**){:% .=(=##!*))))$]{+ %~*;,$/.%+@==!~--/{-{&+",
"{-*=*-*$~-.%@===>==){:% .*(,#]~)>>*=!]{+%%!*;=]~:%+;=*!~*)>{>{&+",
"{==*==$!~-.%@,)>#$)*{:%%+-;,]~{)*=>$!{{&%%+*;*~/:%+,==!~)*>>=.&+",
"{@>=**]~~-.%,@*>$]*={::%+.'@~{)*=*]{{{-&%&+)=)~:/&+==*!]->)->.&&",
"{@==*>~~--.%'@)=****{::%&.*,>))---{{--.&%&+.&&//&&+-.+........&&",
"{@'*$]*-*>.%>@=)==)*{.:%&.+**--..+%:+.+%%&+.++&&&++%%%%%%%%%%%%&",
"{@'=*>*$!-.%)@>>=*{*).:% ++&   %%   &&&&&&++++++++++++&&&&&&&&&&",
"{@$$>*$!]-.%.(==***=)./% +++&&&&&+++..{{{--)))))]]]]))))))))))&.",
"{$$]=>!~~{.%+(>*!)*))./% &{!!!!!!!]))*>>=====''###$],,^$,#$],)&.",
"{$])>>*~~{% +(=*]{=*{./%%&~########!=,=,>,=,,,#$]]]''^$,,$$$]{ +",
"{$])=****.% +(*={{**{./%%&~#$$$$$$$]=,==,#!>=>$]=>##$)*,$!$]). +",
"{$]**=*=*.%&+@====*={.:%%& $$!!!!!!]~*,==!!==>,>=#$$)*>=--$--. &",
"+])*=*=*{.%&+;**=***{.&%%& ***!]!]]~~-=,=*)>,>>=#)))>==>**$--. &",
"+****){..% &+'=**=*){.&%%& ,@,!~~~~--*=,*'*>>##>*)-**^$'=*$--. &",
"+))-{....% &+>>=***-{.&%%& '@;]----)>*!='=*'#=**=**>'$]=>>---.%&",
"+&%......%&++){{{{{{..&%%& =@;-)**$$]'**'>='=*$=$=>'$]>==>$$-.%&",
"...  %% % &+&&&&&&&&&&&%%  *;'*'>'$$~*'*'>**^$~>=,>=>>=>**')-.%&",
"++++&&    &+&&%%%%%%%%%%%% *>-----]~~*=-)*'^$~=*=>**')**#>*>-.%&",
"+)=###!*{++.&&            &.+&      .--)*$'~~))-{)***))'){)){.%&",
"+=#^####$!=*-{.+&&&&&&&&&&+.++&&&&&& +.......................% &",
"+=#^$***>=,$^^###$$$$$]-)-{{..+++++&&     %%      %%%%%%%%%%% &+",
"+=,>$>,,',',=**!!!!!!!!]**,=====*+.+&&&&&&&&&               &&++",
"+=,,>,'==>,=','=*****]]]*>,@^^*,)&+.+++&&&&&&&&&&&&&&&&&&&&&+++.",
"+=';,',^$]'';=;,,#!>*****'=*^]*){%&.+]$$${+++...~$!]~~/+++++....",
"+=,,=*)$]/,=,;===;,,=,=;=)=;=**{.%&++$]]]{@@'..!###!)#==;#'>)++.",
"+=*-{{{]/-)-{-)-{{{-)*=*){{{{{{..&%&+{]]~{'''{.*)))))==*#!-=@>%.",
"+*{+&&&&&&&&&&&&&&&&&&&&&&&&&&&&&&% +']~{>{>*{+**=*=##==!]-*=.%.",
"+&%%%%%%%%%%%%%%%%%%%%%%%%%%%%%%%%% +&:/.{{{{{+{{>=##!)=]--**.%.",
".+&&&                               &+::&%%%%%&+..~/...~/.....%.",
"....++++++++&&&&&&&&&&&&&&&&&&&&&&&&&++++&&&&&&++%%%%%%%%%%%%%%.",
"&&&&&&&&&&&&&&&&&&&&&&&&&&&&&&&&&&&&&&&&&&&&&&&&&&&&&&&&&&&&&&&&"};
